<svg width="41" height="60" viewBox="0 0 41 60" fill="none" xmlns="http://www.w3.org/2000/svg">
<path fill-rule="evenodd" clip-rule="evenodd" d="M20.5 0C31.8218 0 41 8.9543 41 20C41 23.3397 40.1633 26.4866 38.6779 29.2555L20.5 60L2.74322 30.0012C0.995714 27.0571 0 23.6433 0 20C0 8.9543 9.17816 0 20.5 0ZM20.5 5.71429C12.413 5.71429 5.85714 12.1102 5.85714 20C5.85714 22.2687 6.3936 24.4456 7.40879 26.4107L7.90077 27.2874L20.5 48.5714L33.1882 27.1375C34.4639 24.9883 35.1429 22.5523 35.1429 20C35.1429 12.1102 28.587 5.71429 20.5 5.71429ZM20.5 11.4286C25.3522 11.4286 29.2857 15.2661 29.2857 20C29.2857 24.7339 25.3522 28.5714 20.5 28.5714C15.6478 28.5714 11.7143 24.7339 11.7143 20C11.7143 15.2661 15.6478 11.4286 20.5 11.4286ZM20.5 17.1429C18.8826 17.1429 17.5714 18.422 17.5714 20C17.5714 21.578 18.8826 22.8571 20.5 22.8571C22.1174 22.8571 23.4286 21.578 23.4286 20C23.4286 18.422 22.1174 17.1429 20.5 17.1429Z" fill="white"/>
</svg>
