<svg width="50" height="55" viewBox="0 0 50 55" fill="none" xmlns="http://www.w3.org/2000/svg">
<path d="M31.111 12.5278C32.913 12.9193 34.7017 13.8043 35.9999 15.25C37.2981 16.6957 38.0928 18.6877 38.4444 20.6944M32.3333 3C36.077 3.46316 39.4459 5.48013 42.1111 8.44444C44.7763 11.4088 46.5794 15.1648 47 19.3333M46.9986 39.6865V47.0631C47.0089 49.8829 44.7322 52.2376 42.1757 51.9808C20.1112 52 3 32.7675 3.01727 8.36056C2.78703 5.5288 4.89097 3.00289 7.41983 3.00024H14.0569C15.1305 2.98849 16.1714 3.41106 16.9855 4.18918C19.2999 6.4014 20.7886 13.91 20.2158 16.895C19.7686 19.2254 17.6591 20.8559 16.225 22.4498C19.3743 28.6057 23.9603 33.7027 29.499 37.203C30.9332 35.609 32.4001 33.2645 34.497 32.7675C37.1868 32.1299 43.9726 33.7901 45.9512 36.3854C46.6528 37.3058 47.0256 38.4806 46.9986 39.6865Z" stroke="white" stroke-width="6" stroke-linecap="round" stroke-linejoin="round"/>
</svg>
