<svg width="64" height="128" viewBox="0 0 64 128" fill="none" xmlns="http://www.w3.org/2000/svg">
<rect x="20" y="47" width="25" height="41" rx="12.5" fill="#F77A26"/>
<rect x="32" y="54" width="9" height="13" rx="4.5" fill="#E06E22"/>
<path d="M37.703 59.1506L56.4587 63.1851L50.045 73.8383L37.703 59.1506Z" fill="#EF4824"/>
<path d="M50.1982 64.7913L63.4757 73.7193L61.8017 76.2088L48.5242 67.2808L50.1982 64.7913Z" fill="#EF4824"/>
<path d="M5.59863 84.1846V49.7314C5.69434 46.3818 6.79492 42.9844 8.90039 39.5391C13.4941 32.3613 20.2891 28.7725 29.2852 28.7725V37.8164C25.9355 37.8164 22.9209 38.8691 20.2412 40.9746C16.8916 43.6543 15.2168 46.7168 15.2168 50.1621V84.1846C15.2168 85.9072 15.791 87.6777 16.9395 89.4961C19.8105 93.8027 23.9258 95.9561 29.2852 95.9561V105C21.8203 105 15.8389 102.607 11.3408 97.8223C7.5127 93.707 5.59863 89.1611 5.59863 84.1846ZM35.7451 37.96V28.7725C40.626 28.7725 45.0283 30.2559 48.9521 33.2227C54.5986 37.5293 57.4219 43.1279 57.4219 50.0186L48.5215 53.3203C48.5215 51.7891 48.4736 50.7842 48.3779 50.3057C48.1865 47.9131 47.5166 45.8076 46.3682 43.9893C43.9756 39.9697 40.4346 37.96 35.7451 37.96ZM35.6016 105.144V96.0996C37.8027 96.0996 39.9561 95.6211 42.0615 94.6641C46.8467 92.3672 49.5264 88.5391 50.1006 83.1797V80.3086L59.1445 83.7539C59.1445 88.7305 57.1348 93.3242 53.1152 97.5352C48.1387 102.703 42.3008 105.239 35.6016 105.144Z" fill="#EF4824"/>
</svg>
